<?xml version="1.0" encoding="UTF-8" standalone="no"?>
<!-- Uploaded to: SVG Repo, www.svgrepo.com, Generator: SVG Repo Mixer Tools -->

<svg
   width="728.51562"
   height="861.84894"
   viewBox="0 0 21.855469 25.855468"
   fill="none"
   version="1.1"
   id="svg1"
   sodipodi:docname="document-svgrepo-com-edit.svg"
   inkscape:version="1.4.1 (93de688d07, 2025-03-30)"
   xmlns:inkscape="http://www.inkscape.org/namespaces/inkscape"
   xmlns:sodipodi="http://sodipodi.sourceforge.net/DTD/sodipodi-0.dtd"
   xmlns="http://www.w3.org/2000/svg"
   xmlns:svg="http://www.w3.org/2000/svg">
  <defs
     id="defs1">
    <inkscape:path-effect
       effect="offset"
       id="path-effect3"
       is_visible="true"
       lpeversion="1.3"
       linejoin_type="miter"
       unit="mm"
       offset="17"
       miter_limit="4"
       attempt_force_join="false"
       update_on_knot_move="true" />
    <inkscape:path-effect
       effect="simplify"
       id="path-effect2"
       is_visible="true"
       lpeversion="1.3"
       threshold="5"
       steps="1"
       smooth_angles="360"
       helper_size="10"
       simplify_individual_paths="false"
       simplify_just_coalesce="false" />
  </defs>
  <sodipodi:namedview
     id="namedview1"
     pagecolor="#505050"
     bordercolor="#eeeeee"
     borderopacity="1"
     inkscape:showpageshadow="0"
     inkscape:pageopacity="0"
     inkscape:pagecheckerboard="0"
     inkscape:deskcolor="#505050"
     inkscape:zoom="0.72920387"
     inkscape:cx="362.72435"
     inkscape:cy="435.40636"
     inkscape:window-width="1916"
     inkscape:window-height="1056"
     inkscape:window-x="1920"
     inkscape:window-y="20"
     inkscape:window-maximized="1"
     inkscape:current-layer="svg1" />
  <path
     fill-rule="evenodd"
     clip-rule="evenodd"
     d="m 10,-0.92773438 c -0.7776058,10e-9 -1.5211115,0.30825019 -2.0703125,0.85742188 l -6,6 C 1.3805522,6.4788521 1.0722656,7.2223942 1.0722656,8 v 12 c 0,2.719688 2.2081046,4.927734 4.9277344,4.927734 h 12 c 2.719649,0 4.927734,-2.208085 4.927734,-4.927734 V 4 c 0,-2.7196298 -2.208046,-4.92773438 -4.927734,-4.92773438 z"
     fill="#000000"
     id="path2"
     sodipodi:nodetypes="csssssssscc"
     style="fill:#ffffff;fill-opacity:1"
     inkscape:path-effect="#path-effect3"
     inkscape:original-d="M 9.29289,1.29289 C 9.48043,1.10536 9.73478,1 10,1 h 8 c 1.6569,0 3,1.34315 3,3 v 16 c 0,1.6569 -1.3431,3 -3,3 H 6 C 4.34315,23 3,21.6569 3,20 V 8 C 3,7.73478 3.10536,7.48043 3.29289,7.29289 Z"
     transform="translate(-1.0722656,0.92773438)" />
  <path
     fill-rule="evenodd"
     clip-rule="evenodd"
     d="m 8.2206244,2.2206244 c 0.18754,-0.18753 0.44189,-0.29289 0.70711,-0.29289 h 7.9999996 c 1.6569,0 3,1.34315 3,3 V 20.927734 c 0,1.6569 -1.3431,3 -3,3 H 4.9277344 c -1.65685,0 -3,-1.3431 -3,-3 V 8.9277344 c 0,-0.26522 0.10536,-0.51957 0.29289,-0.70711 z m 8.7071096,1.70711 H 9.9277344 v 5 c 0,0.55228 -0.4477,1 -1,1 h -5 V 20.927734 c 0,0.5523 0.44772,1 1,1 H 16.927734 c 0.5523,0 1,-0.4477 1,-1 V 4.9277344 c 0,-0.55228 -0.4477,-1 -1,-1 z m -11.5857896,4 h 2.58579 v -2.58579 z m 0.58579,5.9999996 c 0,-0.5523 0.44772,-1 1,-1 h 7.9999996 c 0.5523,0 1,0.4477 1,1 0,0.5523 -0.4477,1 -1,1 H 6.9277344 c -0.55228,0 -1,-0.4477 -1,-1 z m 0,4 c 0,-0.5523 0.44772,-1 1,-1 h 7.9999996 c 0.5523,0 1,0.4477 1,1 0,0.5523 -0.4477,1 -1,1 H 6.9277344 c -0.55228,0 -1,-0.4477 -1,-1 z"
     fill="#000000"
     id="path1"
     sodipodi:insensitive="true" />
</svg>
