<?xml version="1.0" encoding="UTF-8"?>
<svg
   role="img"
   viewBox="0 0 29.895632 29.874346"
   version="1.1"
   xmlns="http://www.w3.org/2000/svg">
  <title>GitHub</title>
  <ellipse
     style="fill:#ffffff"
     cx="14.329318"
     cy="14.319116"
     rx="14.329318"
     ry="14.319116" />
  <path
     fill="#000000"
     d="m 14.329318,2.3160925 c -6.6299999,0 -11.9999999,5.373 -11.9999999,12.0000005 0,5.303 3.438,9.8 8.2049999,11.385 0.6,0.113 0.82,-0.258 0.82,-0.577 0,-0.285 -0.01,-1.04 -0.015,-2.04 -3.3379999,0.724 -4.0419999,-1.61 -4.0419999,-1.61 -0.546,-1.385 -1.335,-1.755 -1.335,-1.755 -1.087,-0.744 0.084,-0.729 0.084,-0.729 1.205,0.084 1.838,1.236 1.838,1.236 1.07,1.835 2.8089999,1.305 3.4949999,0.998 0.108,-0.776 0.417,-1.305 0.76,-1.605 -2.6649998,-0.3 -5.4659999,-1.332 -5.4659999,-5.93 0,-1.31 0.465,-2.38 1.235,-3.22 -0.135,-0.303 -0.54,-1.5230005 0.105,-3.1760005 0,0 1.005,-0.322 3.2999999,1.23 0.96,-0.267 1.98,-0.399 3,-0.405 1.02,0.006 2.04,0.138 3,0.405 2.28,-1.552 3.285,-1.23 3.285,-1.23 0.645,1.653 0.24,2.8730005 0.12,3.1760005 0.765,0.84 1.23,1.91 1.23,3.22 0,4.61 -2.805,5.625 -5.475,5.92 0.42,0.36 0.81,1.096 0.81,2.22 0,1.606 -0.015,2.896 -0.015,3.286 0,0.315 0.21,0.69 0.825,0.57 4.801,-1.574 8.236,-6.074 8.236,-11.369 0,-6.6270005 -5.373,-12.0000005 -12,-12.0000005" />
</svg>
