<?xml version="1.0" encoding="UTF-8" standalone="no"?>
<!-- Uploaded to: SVG Repo, www.svgrepo.com, Generator: SVG Repo Mixer Tools -->

<svg
   fill="#000000"
   width="899.05939"
   height="899.05939"
   viewBox="0 0 39.333848 39.333848"
   data-name="Layer 2"
   id="Layer_2"
   version="1.1"
   sodipodi:docname="web-internet-online-network-seo-svgrepo-com.svg"
   inkscape:version="1.4.1 (93de688d07, 2025-03-30)"
   xmlns:inkscape="http://www.inkscape.org/namespaces/inkscape"
   xmlns:sodipodi="http://sodipodi.sourceforge.net/DTD/sodipodi-0.dtd"
   xmlns="http://www.w3.org/2000/svg"
   xmlns:svg="http://www.w3.org/2000/svg">
  <defs
     id="defs3" />
  <sodipodi:namedview
     id="namedview3"
     pagecolor="#505050"
     bordercolor="#eeeeee"
     borderopacity="1"
     inkscape:showpageshadow="0"
     inkscape:pageopacity="0"
     inkscape:pagecheckerboard="0"
     inkscape:deskcolor="#505050"
     inkscape:zoom="0.72920387"
     inkscape:cx="362.72435"
     inkscape:cy="397.00832"
     inkscape:window-width="1916"
     inkscape:window-height="1056"
     inkscape:window-x="0"
     inkscape:window-y="20"
     inkscape:window-maximized="1"
     inkscape:current-layer="Layer_2" />
  <path
     d="M 19.686339,39.333847 C 2.1810612,39.333847 -6.5824419,18.170758 5.7941584,5.7941584 18.170758,-6.5824419 39.333847,2.1810612 39.333847,19.686339 39.321295,30.532155 30.532155,39.321295 19.686339,39.333847 Z"
     id="path4"
     style="display:inline;fill:#ffffff;fill-opacity:1;stroke-width:1.13899"
     sodipodi:nodetypes="cscc"
     inkscape:label="path4" />
  <path
     d="m 19.68397,36.93397 a 17.25,17.25 0 1 1 17.25,-17.25 17.27,17.27 0 0 1 -17.25,17.25 z m 0,-32.0000001 a 14.75,14.75 0 1 0 14.75,14.7500001 14.77,14.77 0 0 0 -14.75,-14.7500001 z"
     id="path1"
     sodipodi:insensitive="true"
     style="display:inline" />
  <path
     d="M 35.68397,20.93397 H 4.4339699 a 1.25,1.25 0 0 1 0,-2.5 H 35.68397 a 1.25,1.25 0 0 1 0,2.5 z"
     id="path2"
     style="display:inline"
     sodipodi:insensitive="true" />
  <path
     d="m 19.68397,36.08397 c -4.86,0 -8.66,-7.2 -8.66,-16.4 0,-9.2 3.8,-16.4000001 8.66,-16.4000001 4.86,0 8.66,7.2000001 8.66,16.4000001 0,9.2 -3.8,16.4 -8.66,16.4 z m 0,-30.3000001 c -2.91,0 -6.16,5.7100001 -6.16,13.9000001 0,8.19 3.25,13.9 6.16,13.9 2.91,0 6.16,-5.71 6.16,-13.9 0,-8.19 -3.25,-13.9000001 -6.16,-13.9000001 z"
     id="path3"
     style="display:inline"
     sodipodi:insensitive="true" />
</svg>
